<svg width="61" height="61" viewBox="0 0 61 61" fill="none" xmlns="http://www.w3.org/2000/svg">
<g id="Frame">
<g id="Group">
<g id="Group_2">
<path id="Vector" fill-rule="evenodd" clip-rule="evenodd" d="M49.2821 25.7472H41.2945V36.1168H49.2821V38.2262H41.2945V49.3995H49.2821V51.5088H40.2398C39.9601 51.5088 39.6918 51.3977 39.494 51.1999C39.2962 51.0021 39.1851 50.7339 39.1851 50.4541V31.9866H29.0674V29.8772H39.1851V11.4099C39.1851 11.1301 39.2962 10.8619 39.494 10.6641C39.6918 10.4663 39.9601 10.3552 40.2398 10.3552H49.2821V12.4645H41.2945V23.6377H49.2821V25.7472Z" fill="#4D5C7D"/>
<path id="Vector_2" fill-rule="evenodd" clip-rule="evenodd" d="M17.2152 23.6486C21.2378 23.6486 24.4987 26.9094 24.4987 30.932C24.4987 34.9545 21.2378 38.2154 17.2152 38.2154C13.1926 38.2154 9.93178 34.9545 9.93178 30.932C9.93178 26.9094 13.1926 23.6486 17.2152 23.6486ZM14.5254 14.8127V18.532C13.0407 18.8527 11.6261 19.4388 10.3497 20.2622L7.71939 17.6319L3.91525 21.4359L6.54564 24.0662C5.72223 25.3426 5.13607 26.7572 4.81537 28.242H1.09619V33.6217H4.81537C5.13611 35.1064 5.72227 36.521 6.54564 37.7974L3.91537 40.4277L7.71939 44.2318L10.3497 41.6016C11.6261 42.4249 13.0407 43.011 14.5254 43.3317V47.0509H19.9051V43.3317C21.3898 43.0111 22.8044 42.4249 24.0808 41.6015L26.711 44.2317L30.5152 40.4277L27.8849 37.7974C28.7083 36.521 29.2944 35.1064 29.6151 33.6217H33.3344V28.242H29.6151C29.2944 26.7572 28.7083 25.3426 27.8849 24.0662L30.5152 21.4359L26.7112 17.6319L24.0808 20.2623C22.8044 19.4389 21.3898 18.8527 19.9051 18.532V14.8127H14.5254Z" fill="#0096D5"/>
<path id="Vector_3" fill-rule="evenodd" clip-rule="evenodd" d="M47.145 6.91986H56.125V15.8999H47.145V6.91986Z" fill="#30C785"/>
<path id="Vector_4" fill-rule="evenodd" clip-rule="evenodd" d="M49.4482 11.3928C49.2654 11.1846 49.1721 10.9127 49.1883 10.6361C49.2046 10.3595 49.3292 10.1005 49.5352 9.91515C49.7411 9.7298 50.0118 9.63308 50.2886 9.64593C50.5653 9.65879 50.8259 9.78019 51.0137 9.98382L52.3239 11.4379L57.8546 6.92804C58.0712 6.7549 58.3475 6.67435 58.6232 6.70394C58.8989 6.73354 59.1518 6.87087 59.3268 7.08604C59.5017 7.30121 59.5846 7.57679 59.5573 7.85277C59.53 8.12875 59.3948 8.38277 59.1811 8.55953L52.9219 13.6635L52.9157 13.6691C52.8129 13.7617 52.6929 13.833 52.5625 13.8792C52.4322 13.9253 52.294 13.9453 52.1559 13.938C52.0178 13.9308 51.8824 13.8964 51.7576 13.8368C51.6328 13.7772 51.521 13.6937 51.4285 13.5909L49.4482 11.3928Z" fill="white"/>
<path id="Vector_5" fill-rule="evenodd" clip-rule="evenodd" d="M47.145 19.9346H56.125V28.9146H47.145V19.9346Z" fill="#30C785"/>
<path id="Vector_6" fill-rule="evenodd" clip-rule="evenodd" d="M49.4482 24.4075C49.2654 24.1993 49.1721 23.9274 49.1883 23.6508C49.2046 23.3742 49.3292 23.1152 49.5352 22.9299C49.7411 22.7445 50.0118 22.6478 50.2886 22.6606C50.5653 22.6735 50.8259 22.7949 51.0137 22.9985L52.3239 24.4526L57.8546 19.9428C58.0712 19.7696 58.3475 19.6891 58.6232 19.7187C58.8989 19.7482 59.1518 19.8856 59.3268 20.1008C59.5017 20.3159 59.5846 20.5915 59.5573 20.8675C59.53 21.1435 59.3948 21.3975 59.1811 21.5742L52.9219 26.6782L52.9157 26.6838C52.8129 26.7764 52.6929 26.8477 52.5625 26.8939C52.4322 26.94 52.294 26.96 52.1559 26.9527C52.0178 26.9455 51.8824 26.9111 51.7576 26.8515C51.6328 26.7919 51.521 26.7084 51.4285 26.6056L49.4482 24.4075Z" fill="white"/>
<path id="Vector_7" fill-rule="evenodd" clip-rule="evenodd" d="M47.145 32.9493H56.125V41.9294H47.145V32.9493Z" fill="#30C785"/>
<path id="Vector_8" fill-rule="evenodd" clip-rule="evenodd" d="M49.4486 37.4221C49.2617 37.2145 49.165 36.9412 49.1797 36.6623C49.1944 36.3834 49.3192 36.1217 49.5268 35.9349C49.7344 35.7481 50.0078 35.6513 50.2867 35.666C50.5656 35.6807 50.8272 35.8056 51.0141 36.0132L52.3242 37.4672L57.8549 32.9574C57.962 32.8703 58.0852 32.8051 58.2175 32.7656C58.3498 32.7262 58.4886 32.7131 58.626 32.7273C58.7633 32.7414 58.8965 32.7825 59.018 32.8482C59.1395 32.9138 59.2468 33.0027 59.3339 33.1099C59.421 33.217 59.4862 33.3402 59.5257 33.4725C59.5651 33.6048 59.5782 33.7436 59.564 33.8809C59.5499 34.0182 59.5088 34.1514 59.4431 34.2729C59.3775 34.3943 59.2886 34.5017 59.1814 34.5888L52.9222 39.6929L52.916 39.6985C52.7084 39.8853 52.4351 39.982 52.1562 39.9673C51.8773 39.9527 51.6156 39.8278 51.4288 39.6202L49.4486 37.4221Z" fill="white"/>
<path id="Vector_9" fill-rule="evenodd" clip-rule="evenodd" d="M47.145 45.9639H56.125V54.9439H47.145V45.9639Z" fill="#30C785"/>
<path id="Vector_10" fill-rule="evenodd" clip-rule="evenodd" d="M49.4486 50.4368C49.2617 50.2292 49.165 49.9559 49.1797 49.677C49.1944 49.3981 49.3192 49.1364 49.5268 48.9496C49.7344 48.7628 50.0078 48.666 50.2867 48.6807C50.5656 48.6954 50.8272 48.8203 51.0141 49.0279L52.3242 50.4819L57.8549 45.972C58.0718 45.8017 58.3469 45.7234 58.621 45.7541C58.895 45.7847 59.1461 45.9217 59.3201 46.1357C59.494 46.3497 59.577 46.6234 59.5511 46.8979C59.5251 47.1725 59.3924 47.4259 59.1814 47.6035L52.9222 52.7075L52.916 52.7131C52.7084 52.8999 52.4351 52.9966 52.1562 52.982C51.8773 52.9673 51.6157 52.8425 51.4288 52.6349L49.4486 50.4368Z" fill="white"/>
</g>
</g>
</g>
</svg>
