<svg width="61" height="61" viewBox="0 0 61 61" fill="none" xmlns="http://www.w3.org/2000/svg">
<g id="Frame" clip-path="url(#clip0_57_2232)">
<g id="Group">
<path id="Vector" d="M11.5751 59.9377L14.1239 55.5226C12.5299 54.4729 11.0239 53.264 9.624 51.9109C-0.114871 42.3524 -2.14456 27.4283 4.67657 15.6097C9.05587 8.02614 16.4817 2.76606 25.0511 1.17747L26.3613 0.935242L31.3518 11.0624L28.8084 11.2994C22.5508 11.88 16.9455 15.4638 13.8144 20.8855C9.70825 27.9969 10.5345 36.9255 15.8702 43.1007C16.905 44.3366 18.0958 45.433 19.4128 46.3624L21.8943 42.0621L30.1414 58.7389L11.5751 59.9377Z" fill="#0096D5"/>
<path id="Vector_2" d="M34.962 60.1832L29.9683 50.0491L32.5166 49.8157C38.766 49.2458 44.3713 45.6615 47.507 40.2298C52.5424 31.5056 49.9886 20.4473 41.9104 14.7529L39.4271 19.0531L31.1841 2.38079L39.3103 1.84032L39.3428 1.85719L49.7501 1.172L47.1999 5.59079C53.3339 9.6177 57.7201 15.6766 59.635 22.8191C61.7009 30.5297 60.6397 38.5877 56.6449 45.505C52.2846 53.0563 44.8606 58.3164 36.2758 59.936L34.962 60.1832Z" fill="#0096D5"/>
<path id="Vector_3" d="M42.9704 30.5576C42.9704 30.2408 42.9704 29.8893 42.9353 29.5725L47.0153 27.2165L41.7395 18.0716L37.6247 20.4634C37.0621 20.0767 36.5343 19.7599 35.9365 19.4783V14.7306H25.3849V19.4784C24.7872 19.76 24.2598 20.0763 23.6972 20.4636L19.5819 18.0718L14.3062 27.2166L18.3863 29.5726C18.3511 29.8894 18.3511 30.2409 18.3511 30.5577C18.3511 30.8741 18.3511 31.2257 18.3863 31.5424L14.3062 33.8991L19.5819 43.0432L23.6972 40.6514C24.2597 41.0381 24.787 41.355 25.3849 41.6361V46.3845H35.9365V41.636C36.5343 41.355 37.0621 41.0382 37.6247 40.6514L41.7395 43.0432L47.0153 33.8991L42.9352 31.5424C42.9704 31.2257 42.9704 30.8741 42.9704 30.5577V30.5576ZM30.6607 35.8334C27.7416 35.8334 25.3849 33.4764 25.3849 30.5576C25.3849 27.638 27.7416 25.2818 30.6607 25.2818C33.5799 25.2818 35.9365 27.638 35.9365 30.5576C35.9365 33.4764 33.5799 35.8334 30.6607 35.8334Z" fill="white"/>
<path id="Vector_4" d="M42.9357 31.5423L47.0157 33.8989L41.7399 43.0431L37.6251 40.6513C37.0625 41.038 36.5347 41.3549 35.9369 41.636V46.3843H30.6611V35.8329C33.5803 35.8329 35.9369 33.4762 35.9369 30.5571C35.9369 27.638 33.5807 25.2819 30.6611 25.2819V14.7303H35.9369V19.4783C36.5347 19.7599 37.0625 20.0762 37.6251 20.463L41.7399 18.0716L47.0157 27.216L42.9356 29.5726C42.9709 29.8888 42.9709 30.2403 42.9709 30.5571C42.9709 30.874 42.9709 31.2255 42.9357 31.5423Z" fill="#ADADAD"/>
</g>
</g>
<defs>
<clipPath id="clip0_57_2232">
<rect width="60" height="60" fill="white" transform="translate(0.666504 0.818115)"/>
</clipPath>
</defs>
</svg>
