<svg width="60" height="61" viewBox="0 0 60 61" fill="none" xmlns="http://www.w3.org/2000/svg">
<g id="Frame">
<g id="Group">
<g id="Vector">
<path d="M1 18.8181V4.81812C1 4.02247 1.31607 3.2594 1.87868 2.69679C2.44129 2.13419 3.20435 1.81812 4 1.81812H18.19C19.3594 1.81836 20.4917 2.22847 21.39 2.97712L24.608 5.65912C25.5068 6.4082 26.6399 6.81834 27.81 6.81812H56C56.7957 6.81812 57.5587 7.13419 58.1213 7.6968C58.6839 8.2594 59 9.02247 59 9.81812V18.8181H1Z" fill="#0096D5"/>
<path d="M1 18.8181V4.81812C1 4.02247 1.31607 3.2594 1.87868 2.69679C2.44129 2.13419 3.20435 1.81812 4 1.81812H18.19C19.3594 1.81836 20.4917 2.22847 21.39 2.97712L24.608 5.65912C25.5068 6.4082 26.6399 6.81834 27.81 6.81812H56C56.7957 6.81812 57.5587 7.13419 58.1213 7.6968C58.6839 8.2594 59 9.02247 59 9.81812V18.8181H1Z" fill="black" fill-opacity="0.4"/>
</g>
<path id="Vector_2" d="M6 16.8181V13.8181C6 13.0225 6.31607 12.2594 6.87868 11.6968C7.44129 11.1342 8.20435 10.8181 9 10.8181H51C51.7957 10.8181 52.5587 11.1342 53.1213 11.6968C53.6839 12.2594 54 13.0225 54 13.8181V16.8181H6Z" fill="white"/>
<path id="Vector_3" d="M56 15.8181H4C2.34315 15.8181 1 17.1613 1 18.8181V50.8181C1 52.475 2.34315 53.8181 4 53.8181H56C57.6569 53.8181 59 52.475 59 50.8181V18.8181C59 17.1613 57.6569 15.8181 56 15.8181Z" fill="#0096D5"/>
<path id="Vector_4" d="M30 59.8181C39.9411 59.8181 48 51.7592 48 41.8181C48 31.877 39.9411 23.8181 30 23.8181C20.0589 23.8181 12 31.877 12 41.8181C12 51.7592 20.0589 59.8181 30 59.8181Z" fill="#30C785"/>
<g id="Group_2">
<path id="Vector_5" d="M40.2529 45.9281C40.136 45.8682 40.0085 45.8319 39.8776 45.8214C39.7467 45.8108 39.615 45.826 39.49 45.8663C39.365 45.9066 39.2492 45.9712 39.1492 46.0562C39.0491 46.1413 38.9668 46.2452 38.9069 46.3621C37.9481 48.2444 36.4174 49.7744 34.5346 50.7322C32.6518 51.6901 30.5139 52.0265 28.4279 51.6932C26.3419 51.3599 24.4153 50.374 22.9247 48.8771C21.4342 47.3803 20.4564 45.4495 20.1319 43.3621L21.2929 44.5231C21.4815 44.7053 21.7341 44.8061 21.9963 44.8038C22.2585 44.8015 22.5093 44.6963 22.6947 44.5109C22.8801 44.3255 22.9853 44.0747 22.9876 43.8125C22.9899 43.5503 22.8891 43.2977 22.7069 43.1091L19.7069 40.1091C19.5194 39.9216 19.2651 39.8163 18.9999 39.8163C18.7348 39.8163 18.4804 39.9216 18.2929 40.1091L15.2929 43.1091C15.1108 43.2977 15.01 43.5503 15.0122 43.8125C15.0145 44.0747 15.1197 44.3255 15.3051 44.5109C15.4905 44.6963 15.7413 44.8015 16.0035 44.8038C16.2657 44.8061 16.5183 44.7053 16.7069 44.5231L18.0789 43.1511C18.3677 45.7134 19.4741 48.1146 21.2343 49.9989C22.9945 51.8832 25.3148 53.1504 27.8515 53.6128C30.3883 54.0752 33.0065 53.7082 35.3183 52.5662C37.6302 51.4241 39.5127 49.5678 40.6869 47.2721C40.8072 47.0363 40.8291 46.7623 40.7478 46.5104C40.6664 46.2584 40.4884 46.0491 40.2529 45.9281ZM44.7069 39.1111C44.5194 38.9236 44.2651 38.8183 43.9999 38.8183C43.7348 38.8183 43.4804 38.9236 43.2929 39.1111L41.9209 40.4831C41.6322 37.9208 40.5258 35.5196 38.7656 33.6353C37.0054 31.751 34.685 30.4838 32.1483 30.0214C29.6116 29.559 26.9933 29.926 24.6815 31.0681C22.3697 32.2101 20.4872 34.0665 19.3129 36.3621C19.253 36.479 19.2168 36.6065 19.2062 36.7374C19.1956 36.8683 19.2109 37 19.2512 37.125C19.2915 37.25 19.356 37.3658 19.441 37.4659C19.5261 37.5659 19.63 37.6482 19.7469 37.7081C19.983 37.8291 20.2574 37.8513 20.5098 37.7699C20.6348 37.7296 20.7506 37.6651 20.8507 37.58C20.9507 37.4949 21.033 37.391 21.0929 37.2741C22.0517 35.3918 23.5825 33.8618 25.4652 32.904C27.348 31.9461 29.486 31.6097 31.5719 31.943C33.6579 32.2763 35.5846 33.2622 37.0751 34.7591C38.5657 36.256 39.5434 38.1868 39.8679 40.2741L38.7069 39.1131C38.5183 38.931 38.2657 38.8302 38.0035 38.8324C37.7413 38.8347 37.4905 38.9399 37.3051 39.1253C37.1197 39.3107 37.0145 39.5615 37.0122 39.8237C37.01 40.0859 37.1108 40.3385 37.2929 40.5271L40.2929 43.5271C40.4804 43.7146 40.7348 43.8199 40.9999 43.8199C41.2651 43.8199 41.5194 43.7146 41.7069 43.5271L44.7069 40.5271C44.8 40.4342 44.8739 40.3239 44.9243 40.2024C44.9748 40.0809 45.0007 39.9506 45.0007 39.8191C45.0007 39.6876 44.9748 39.5573 44.9243 39.4358C44.8739 39.3144 44.8 39.204 44.7069 39.1111Z" fill="white"/>
</g>
</g>
</g>
</svg>
