<svg width="61" height="61" viewBox="0 0 61 61" fill="none" xmlns="http://www.w3.org/2000/svg">
<g id="Frame" clip-path="url(#clip0_57_2402)">
<g id="Group">
<path id="Vector" d="M47.9992 60.8183C48.296 60.8183 48.5221 60.5528 48.4769 60.2595C48.2081 58.5119 46.6978 57.1737 44.8749 57.1737C44.5301 57.1737 44.1976 57.2248 43.8813 57.3144C43.1719 55.1182 41.1115 53.5291 38.6791 53.5291C37.4147 53.5291 36.2516 53.9595 35.3255 54.6802C34.2718 51.786 31.4369 49.7476 28.1466 49.8917C24.4007 50.0558 21.3602 53.0946 21.1925 56.8402C21.1323 58.1859 21.439 59.4543 22.0186 60.5571C22.0596 60.6356 22.1214 60.7015 22.1971 60.7476C22.2729 60.7936 22.3598 60.818 22.4484 60.8183H47.9992Z" fill="#C6D0DA"/>
<path id="Vector_2" d="M47.9992 60.8183C48.296 60.8183 48.5221 60.5529 48.477 60.2595C48.2081 58.5119 46.6978 57.1738 44.875 57.1738C44.5301 57.1738 44.1976 57.2249 43.8813 57.3144C43.1719 55.1182 41.1115 53.5291 38.6792 53.5291C38.5576 53.5291 38.438 53.5366 38.3185 53.5445L33.9995 60.8183H47.9992Z" fill="#B9C1CB"/>
<path id="Vector_3" d="M34.2802 31.371L31.519 34.1322L1.53821 4.15131C0.775674 3.38877 0.775674 2.15256 1.53821 1.39014C2.30075 0.627603 3.53696 0.627603 4.29938 1.39014L34.2802 31.371Z" fill="#E2A770"/>
<path id="Vector_4" d="M29.1562 31.7754L31.917 29.0146L34.2734 31.3711L31.5127 34.1319L29.1562 31.7754Z" fill="#D5985C"/>
<path id="Vector_5" d="M34.1077 42.5883L33.0722 41.5529C32.1192 40.5998 32.1192 39.0544 33.0722 38.1013L38.2495 32.9241C39.2025 31.971 40.7479 31.971 41.701 32.9241L42.7365 33.9596L34.1077 42.5883Z" fill="#407093"/>
<path id="Vector_6" d="M31.5192 36.8934C30.7566 36.1308 30.7566 34.8946 31.5192 34.1322L34.2803 31.371C35.0429 30.6085 36.2791 30.6085 37.0415 31.371C37.8041 32.1336 37.8041 33.3698 37.0415 34.1322L34.2803 36.8934C33.5179 37.6559 32.2817 37.6559 31.5192 36.8934Z" fill="#2B4D66"/>
<path id="Vector_7" d="M47.871 59.7664L34.1079 42.5883L42.7367 33.9596L59.9147 47.7227C60.4759 48.1723 60.5221 49.01 60.0135 49.5185L49.6668 59.8652C49.1582 60.3738 48.3206 60.3277 47.871 59.7664Z" fill="#FFD064"/>
<path id="Vector_8" d="M44.3237 35.2313C47.5481 43.994 48.3089 52.4782 46.7904 58.418L47.8708 59.7664C48.3204 60.3276 49.1581 60.3738 49.6665 59.8652L60.0133 49.5185C60.5219 49.01 60.4757 48.1723 59.9145 47.7227L44.3237 35.2313Z" fill="#FFC250"/>
<path id="Vector_9" d="M22.8644 39.9175C22.6702 38.557 21.5008 37.5107 20.0866 37.5107C18.5366 37.5107 17.28 38.7673 17.28 40.3174C17.28 40.5426 17.3073 40.7614 17.3573 40.9713C17.0076 41.3427 16.7918 41.8415 16.7918 42.3918C16.7918 43.5376 17.7206 44.4663 18.8662 44.4663C19.4579 44.4663 19.9903 44.2174 20.3682 43.82C20.7525 44.0826 21.2074 44.2228 21.6729 44.2222C22.9534 44.2222 23.9914 43.1841 23.9914 41.9036C23.9915 41.0595 23.5388 40.3229 22.8644 39.9175ZM10.9057 48.9477C10.7115 47.5871 9.54207 46.5409 8.12785 46.5409C6.57781 46.5409 5.32121 47.7975 5.32121 49.3475C5.32121 49.5727 5.34852 49.7915 5.39855 50.0014C5.04887 50.3728 4.83301 50.8716 4.83301 51.422C4.83301 52.5677 5.76184 53.4964 6.90746 53.4964C7.49914 53.4964 8.03152 53.2475 8.40945 52.8501C8.7938 53.1127 9.2486 53.2529 9.7141 53.2523C10.9946 53.2523 12.0327 52.2143 12.0327 50.9338C12.0328 50.0896 11.5801 49.3531 10.9057 48.9477Z" fill="#C6D0DA"/>
<path id="Vector_10" d="M47.8529 25.4152L47.0401 25.8216C46.6842 25.9996 46.6842 26.5075 47.0401 26.6854L47.8529 27.0918C48.2565 27.2936 48.5721 27.6366 48.7397 28.0555L49.4131 29.7392C49.5751 30.1439 50.1479 30.1439 50.3099 29.7392L50.9833 28.0555C51.1509 27.6365 51.4664 27.2936 51.8701 27.0918L52.6829 26.6854C53.0388 26.5074 53.0388 25.9995 52.6829 25.8216L51.8701 25.4152C51.4665 25.2134 51.1509 24.8704 50.9833 24.4514L50.3099 22.7678C50.1479 22.363 49.575 22.363 49.4131 22.7678L48.7397 24.4514C48.5721 24.8705 48.2565 25.2134 47.8529 25.4152ZM32.6237 16.446L31.8109 16.8524C31.455 17.0304 31.455 17.5383 31.8109 17.7162L32.6237 18.1226C33.0273 18.3245 33.3428 18.6674 33.5104 19.0864L34.1839 20.77C34.3459 21.1748 34.9187 21.1748 35.0806 20.77L35.7541 19.0864C35.9217 18.6673 36.2372 18.3244 36.6409 18.1226L37.4537 17.7162C37.8096 17.5382 37.8096 17.0303 37.4537 16.8524L36.6409 16.446C36.2372 16.2442 35.9217 15.9013 35.7541 15.4823L35.0806 13.7986C34.9187 13.3939 34.3459 13.3939 34.1839 13.7986L33.5104 15.4823C33.3429 15.9013 33.0273 16.2442 32.6237 16.446Z" fill="#FFD064"/>
<g id="Group_2">
<path id="Vector_11" d="M52.719 51.2905C52.5489 51.122 52.319 51.0278 52.0796 51.0284C51.8402 51.029 51.6108 51.1243 51.4415 51.2936C51.2723 51.4629 51.1769 51.6923 51.1763 51.9317C51.1758 52.1711 51.27 52.401 51.4385 52.5711L54.1997 55.3322L55.4802 54.0516L52.719 51.2905ZM52.2954 57.2365L50.049 54.1582C49.9074 53.9642 49.6946 53.8344 49.4574 53.7973C49.2201 53.7602 48.9778 53.8189 48.7838 53.9605C48.5899 54.102 48.46 54.3148 48.423 54.5521C48.3859 54.7894 48.4446 55.0316 48.5861 55.2256L50.9993 58.5325L52.2954 57.2365ZM55.3736 48.4381C55.1795 48.2996 54.9386 48.2433 54.7031 48.2813C54.4677 48.3194 54.2568 48.4488 54.1162 48.6415C53.9756 48.8341 53.9167 49.0744 53.9523 49.3103C53.9879 49.5461 54.115 49.7584 54.3062 49.901L57.3845 52.1473L58.6804 50.8513L55.3736 48.4381Z" fill="#E7A52E"/>
</g>
</g>
</g>
<defs>
<clipPath id="clip0_57_2402">
<rect width="60" height="60" fill="white" transform="translate(0.666504 0.818298)"/>
</clipPath>
</defs>
</svg>
